HIERARCHY
ROOT pelvis
{
	OFFSET 0.000000 0.000000 0.000000
	CHANNELS 6 Xposition Yposition Zposition Zrotation Xrotation Yrotation
	JOINT lfemur
	{
		OFFSET 11.446000 0.000000 0.000000
		CHANNELS 3 Zrotation Xrotation Yrotation
		JOINT ltibia
		{
			OFFSET 0.000000 -42.030400 0.000000
			CHANNELS 3 Zrotation Xrotation Yrotation
			JOINT lfoot
			{
				OFFSET 0.000000 -39.930200 0.000000
				CHANNELS 3 Zrotation Xrotation Yrotation
				JOINT ltoes
				{
					OFFSET 0.000000 0.000000 11.775800
					CHANNELS 3 Zrotation Xrotation Yrotation
					End Site
					{
					    OFFSET 0.000000 0.000000 5.000000
					}
				}
			}
		}
	}
	JOINT rfemur
	{
		OFFSET -11.446000 0.000000 0.000000
		CHANNELS 3 Zrotation Xrotation Yrotation
		JOINT rtibia
		{
			OFFSET 0.000000 -42.030400 0.000000
			CHANNELS 3 Zrotation Xrotation Yrotation
			JOINT rfoot
			{
				OFFSET 0.000000 -39.930200 0.000000
				CHANNELS 3 Zrotation Xrotation Yrotation
				JOINT rtoes
				{
					OFFSET 0.000000 0.000000 11.775800
					CHANNELS 3 Zrotation Xrotation Yrotation
					End Site
					{
					    OFFSET 0.000000 0.000000 5.000000
					}
				}
			}
		}
	}
	JOINT thorax
	{
		OFFSET 0.000000 11.255600 -5.000000
		CHANNELS 3 Zrotation Xrotation Yrotation
		JOINT head
		{
			OFFSET 0.000000 43.799300 0.000000
			CHANNELS 3 Zrotation Xrotation Yrotation
			End Site
			{
			    OFFSET 0.000000 5.000000 0.000000
			}
		}
		JOINT lclavicle
		{
			OFFSET 0.000000 39.863000 0.000000
			CHANNELS 3 Zrotation Xrotation Yrotation
			JOINT lhumerus
			{
				OFFSET 17.380600 4.958300 0.000000
				CHANNELS 3 Zrotation Xrotation Yrotation
				JOINT lradius
				{
					OFFSET 0.000000 -27.561300 0.000000
					CHANNELS 3 Zrotation Xrotation Yrotation
					JOINT lhand
					{
						OFFSET 0.000000 -26.933000 0.000000
						CHANNELS 3 Zrotation Xrotation Yrotation
						End Site
						{
						    OFFSET 0.000000 -5.000000 0.000000
						}
					}
				}
			}
		}
		JOINT rclavicle
		{
			OFFSET 0.000000 39.863000 0.000000
			CHANNELS 3 Zrotation Xrotation Yrotation
			JOINT rhumerus
			{
				OFFSET -17.380600 4.958300 0.000000
				CHANNELS 3 Zrotation Xrotation Yrotation
				JOINT rradius
				{
					OFFSET 0.000000 -27.561300 0.000000
					CHANNELS 3 Zrotation Xrotation Yrotation
					JOINT rhand
					{
						OFFSET 0.000000 -26.933000 0.000000
						CHANNELS 3 Zrotation Xrotation Yrotation
						End Site
						{
						    OFFSET 0.000000 -5.000000 0.000000
						}
					}
				}
			}
		}
	}
}
MOTION
Frames:	20
Frame Time:	0.0333333
-211.307 89.4099 -0.0324545 1.3024 -0.316101 88.9931 -0.576105 -0.783622 1.43629 1.85667 10.8076 10.4892 3.12031 3.59101 -0.0116224 -1.72941e-015 -5 -1.59635e-015 1.86759 3.14678 -1.66806 -0.067623 7.41772 -18.3947 -2.73906 4.72442 -0.104347 1.31201e-015 -5 -3.1927e-015 -1.63363 -0.715569 -0.383346 -0.0215094 12.3746 -1.12927 -8.57781e-033 1.23619e-015 3.97569e-016 85.1629 -0.808773 66.6781 3.65882 -0.115396 -60.7056 1.69167 -5.22989 -9.77532 -8.57781e-033 1.23619e-015 3.97569e-016 -81.64 3.13562 -34.8105 1.85413 -0.890387 27.3004 -1.70982 -1.07917 9.83633 
-211.31 89.4013 -0.0142616 1.18748 -0.275606 88.9276 -0.605315 -0.884765 1.4068 1.85888 10.7902 10.5792 3.15356 3.63302 -0.0114352 1.84872e-015 -5 -1.59635e-015 1.85059 2.9263 -1.62256 -0.104893 7.61431 -18.3511 -2.67004 4.6481 -0.104001 -7.95139e-016 -5 -0 -1.69487 -0.943967 -0.34415 0.056029 12.5167 -1.27066 -1.04529e-032 3.01283e-015 1.98785e-016 84.9776 -0.996457 67.1831 4.25918 -0.31456 -61.3011 1.62243 -5.42955 -9.7835 -1.04529e-032 3.01283e-015 1.98785e-016 -81.5602 3.06694 -34.4272 1.98236 -1.02778 26.4841 -1.97461 -0.795571 9.82581 
-211.304 89.4011 0.016892 1.13753 -0.277187 88.8705 -0.582081 -0.95566 1.41892 1.84834 10.8632 10.6417 3.07865 3.58133 -0.0112945 3.43899e-015 -5 -1.59635e-015 1.87918 2.91965 -1.58616 -0.122242 7.52402 -18.3289 -2.65398 4.66853 -0.103601 -0 -5 -0 -1.62553 -0.99617 -0.288489 0.300546 12.6888 -1.34271 -3.97569e-016 3.8763e-015 1.98785e-016 84.9069 -1.33853 68.0617 4.93832 -0.107126 -62.0119 1.676 -5.50131 -9.7674 -3.97569e-016 3.8763e-015 1.98785e-016 -81.629 3.05485 -34.7201 1.74495 -0.760955 27.6872 -1.95397 -1.20864 9.81815 
-211.274 89.4025 0.037847 1.15521 -0.263734 88.9133 -0.610476 -0.92521 1.36209 1.90121 10.8622 10.6529 3.04983 3.58195 -0.0111434 9.3427e-016 -5 1.59635e-015 1.88726 2.9873 -1.59602 -0.128126 7.47209 -18.3576 -2.56373 4.66157 -0.103194 -1.98785e-016 -5 -0 -1.57766 -0.91853 -0.299906 0.470821 12.8916 -1.11878 3.97569e-016 1.71452e-015 -0 84.8073 -1.24327 67.7352 4.67461 -0.114729 -61.5365 1.78288 -5.34234 -9.7667 3.97569e-016 1.71452e-015 -0 -81.7312 3.0701 -34.6923 1.90724 -0.839127 27.4765 -2.03989 -0.965103 9.81724 
-211.26 89.4037 0.0538573 1.11366 -0.248319 88.9936 -0.607671 -0.944478 1.36361 1.88743 10.8155 10.5533 3.06502 3.55839 -0.0109831 1.45115e-015 -5 -1.59635e-015 1.88747 2.99939 -1.59953 -0.120914 7.39394 -18.4425 -2.67063 4.66605 -0.102785 2.38614e-016 -5 -6.38541e-015 -1.618 -1.02273 -0.35817 0.561074 12.9972 -1.23619 7.95139e-016 -4.72114e-016 -0 84.8548 -1.27295 67.7911 4.81883 -0.0966993 -61.6832 1.62081 -5.64487 -9.77919 7.95139e-016 -4.72114e-016 -0 -81.614 2.96391 -34.3893 2.15914 -1.10185 26.4764 -2.47032 -0.0559643 9.81575 
-211.224 89.4048 0.0681466 1.17625 -0.237927 89.0501 -0.584238 -0.887463 1.38372 1.87779 10.8617 10.4516 3.0029 3.56448 -0.0108164 -6.75832e-016 -5 -3.1927e-015 1.90403 3.07231 -1.5976 -0.139243 7.43186 -18.486 -2.61953 4.67606 -0.102375 -1.31201e-015 -5 3.1927e-015 -1.5998 -0.892353 -0.42595 0.646292 13.0274 -1.17996 -3.97569e-016 3.11222e-015 -1.98785e-016 84.954 -1.24973 68.1638 5.06653 -0.0859709 -62.3974 1.2623 -6.4231 -9.80451 -3.97569e-016 3.11222e-015 -1.98785e-016 -81.6833 2.98247 -34.8204 1.87294 -0.807216 27.5748 -2.01079 -0.920808 9.81696 
-211.172 89.4013 0.0774965 1.22696 -0.178162 89.0797 -0.643345 -0.745643 1.34513 1.88324 10.7314 10.474 2.91336 3.57933 -0.0106451 1.39131e-016 -5 1.59635e-015 1.84058 3.08645 -1.67718 -0.124742 7.58867 -18.4499 -2.6089 4.57578 -0.101948 -1.59028e-015 -5 -0 -1.69137 -0.791074 -0.444686 0.592348 13.0049 -1.22596 0 3.70236e-015 -0 84.9063 -1.24989 67.5697 4.49344 -0.198052 -61.2211 1.7059 -5.40153 -9.7744 0 3.70236e-015 -0 -81.6281 2.98014 -34.8658 2.01626 -0.880838 27.3449 -2.15059 -0.637582 9.81625 
-211.139 89.3923 0.0897526 1.19123 -0.143206 89.1738 -0.696836 -0.749974 1.28024 1.92248 10.6898 10.4728 2.89574 3.56154 -0.0104709 -1.82889e-015 -5 6.38541e-015 1.77898 3.02586 -1.76613 -0.0442879 7.71122 -18.4636 -2.60472 4.47558 -0.10152 -2.78262e-016 -5 -3.1927e-015 -1.79767 -0.853079 -0.463508 0.739353 12.9403 -1.4893 9.56921e-033 2.75814e-015 -1.98785e-016 85.0365 -1.30448 67.8722 4.75648 -0.23838 -61.7672 1.51798 -5.85008 -9.78723 9.56921e-033 2.75814e-015 -1.98785e-016 -81.5162 3.12375 -34.7809 2.03709 -0.924247 27.2558 -2.10793 -0.505634 9.81599 
-211.124 89.3814 0.0961746 1.1883 -0.128785 89.0852 -0.702567 -0.758057 1.29029 1.91743 10.7563 10.5217 2.87124 3.52307 -0.010296 6.56007e-016 -5 -1.59635e-015 1.74645 2.92153 -1.78351 -0.0235926 7.92467 -18.3537 -2.59653 4.33747 -0.101086 -1.98785e-016 -5 -0 -1.76966 -0.80289 -0.423508 0.667837 12.8657 -1.49382 3.97569e-016 7.3923e-015 1.98785e-016 84.9714 -1.23229 67.72 4.54668 -0.291271 -61.5715 1.61085 -5.56293 -9.78123 3.97569e-016 7.3923e-015 1.98785e-016 -81.5664 3.12155 -35.2096 1.66126 -0.592304 28.2341 -1.75159 -1.36138 9.81839 
-211.1 89.3822 0.115617 1.1942 -0.174688 89.0269 -0.641849 -0.6988 1.33401 1.91269 10.6905 10.5383 2.86931 3.53992 -0.0101235 1.31201e-015 -5 -3.1927e-015 1.8394 3.04982 -1.68422 -0.0902971 7.6904 -18.3908 -2.54604 4.47198 -0.10069 1.19271e-015 -5 -0 -1.69058 -0.781277 -0.422024 0.498998 12.7691 -1.51431 3.97569e-016 -4.83916e-015 -0 85.0642 -1.20955 67.7131 4.44282 -0.0861142 -61.7413 1.75029 -5.63137 -9.76508 3.97569e-016 -4.83916e-015 -0 -81.5101 3.10749 -34.9719 1.84589 -0.829336 27.5217 -1.98925 -0.885929 9.81676 
-211.076 89.3835 0.118442 1.2116 -0.144236 89.0717 -0.676107 -0.619041 1.31862 1.91035 10.5889 10.5478 2.90096 3.56263 -0.00995486 6.56007e-016 -5 -1.59635e-015 1.83338 3.09377 -1.68874 -0.12273 7.67696 -18.4398 -2.59688 4.4785 -0.100277 -5.96354e-016 -5 -0 -1.73844 -0.830215 -0.450911 0.55486 12.8139 -1.52805 3.97569e-016 -4.83295e-015 -3.97569e-016 85.1317 -1.29178 67.795 4.56518 -0.0834548 -62.0786 1.5865 -5.83311 -9.77752 3.97569e-016 -4.83295e-015 -3.97569e-016 -81.3403 3.22845 -34.4888 2.06797 -1.17525 26.5979 -2.097 -0.443221 9.81587 
-211.059 89.3849 0.134943 1.19027 -0.145555 89.0089 -0.659386 -0.673596 1.34405 1.89524 10.6989 10.569 2.90453 3.49375 -0.00979125 -1.59028e-015 -5 -0 1.82801 2.96354 -1.68868 -0.103605 7.92229 -18.3926 -2.58767 4.32794 -0.0998435 -1.5108e-015 -5 3.1927e-015 -1.6975 -0.855379 -0.430645 0.533713 12.8261 -1.52034 3.97569e-016 6.57232e-015 5.96354e-016 85.09 -1.33971 68.1156 4.77765 -0.0918382 -62.4391 1.4615 -6.0735 -9.78453 3.97569e-016 6.57232e-015 5.96354e-016 -81.2394 3.16328 -34.5956 1.95119 -1.06824 26.9398 -1.95589 -0.906268 9.81682 
-211.057 89.3866 0.144987 1.21082 -0.135264 88.9709 -0.658824 -0.656339 1.34924 1.89098 10.7218 10.6101 2.95302 3.51916 -0.00963674 1.84872e-015 -5 -1.59635e-015 1.831 2.9673 -1.68116 -0.12259 7.94567 -18.3788 -2.6464 4.32532 -0.0994319 2.78262e-016 -5 3.1927e-015 -1.72566 -0.773317 -0.441769 0.683952 12.7872 -1.46415 -3.97569e-016 -5.28022e-016 -3.97569e-016 85.0584 -1.49646 68.6172 5.149 -0.126741 -62.8595 1.45843 -6.36019 -9.79137 -3.97569e-016 -5.28022e-016 -3.97569e-016 -81.0228 2.9564 -34.8618 1.71956 -0.844161 27.3922 -2.0815 -0.952869 9.81754 
-211.069 89.3883 0.15808 1.20056 -0.121042 88.9547 -0.662774 -0.636521 1.34749 1.88417 10.6552 10.6449 2.85884 3.52199 -0.00949223 2.24628e-015 -5 -1.59635e-015 1.83321 2.91511 -1.66906 -0.142764 8.0066 -18.3691 -2.66447 4.31899 -0.0990222 1.27219e-015 -5 3.1927e-015 -1.71024 -0.678091 -0.436398 0.73793 12.6098 -1.32015 3.97569e-016 5.18704e-015 -3.97569e-016 84.9688 -1.47433 68.3786 4.93473 -0.105881 -62.6192 1.37001 -6.41457 -9.79285 3.97569e-016 5.18704e-015 -3.97569e-016 -80.8348 2.95932 -35.1583 1.64425 -0.933643 28.0034 -1.89183 -1.07806 9.82673 
-211.083 89.3902 0.17567 1.20917 -0.125401 88.9463 -0.657559 -0.671097 1.34929 1.90888 10.7442 10.8113 2.78859 3.471 -0.00935954 1.31201e-015 -5 -3.1927e-015 1.86957 2.94789 -1.62851 -0.173864 7.94075 -18.4075 -2.69153 4.34077 -0.0986189 -2.26611e-015 -5 -3.1927e-015 -1.64878 -0.525595 -0.491904 0.619098 12.5088 -1.38419 -1.98785e-016 -3.78933e-015 -3.97569e-016 84.8319 -1.47778 68.2042 4.72296 -0.107569 -62.3996 1.69444 -5.86001 -9.76762 -1.98785e-016 -3.78933e-015 -3.97569e-016 -80.5501 2.79761 -35.6029 1.50151 -1.02793 28.5275 -1.59164 -1.5053 9.83746 
-211.107 89.3918 0.186614 1.19119 -0.0998948 88.916 -0.69277 -0.661256 1.32433 1.9241 10.6508 10.9616 2.745 3.51252 -0.00924227 -1.59028e-015 -5 -0 1.82693 2.86085 -1.67126 -0.135786 8.04567 -18.3452 -2.81151 4.28954 -0.0982096 -3.10108e-015 -5 3.1927e-015 -1.65212 -0.394846 -0.474694 0.682224 12.4277 -1.61289 -3.97569e-016 1.32316e-015 1.98785e-016 84.5835 -1.53957 68.081 4.59744 -0.222174 -62.2125 1.82491 -5.51733 -9.76252 -3.97569e-016 1.32316e-015 1.98785e-016 -80.071 2.73 -35.2517 1.93811 -1.49555 27.474 -1.92713 -0.935968 9.82608 
-211.124 89.3935 0.224503 1.17606 -0.143715 88.8628 -0.620644 -0.689099 1.37289 1.91467 10.6645 10.9592 2.74619 3.50574 -0.00914115 2.50472e-015 -5 -3.1927e-015 1.87166 2.8948 -1.65123 -0.0956051 7.90858 -18.2902 -2.79355 4.36917 -0.0978211 8.34968e-016 -5 -6.38541e-015 -1.53086 -0.354547 -0.461871 0.542335 12.3096 -1.77718 -1.98785e-016 3.06253e-015 -0 84.3405 -1.52617 67.9479 4.55943 -0.0874693 -62.271 1.72448 -5.68467 -9.7665 -1.98785e-016 3.06253e-015 -0 -79.4597 2.60263 -35.5385 1.81697 -1.65069 28.3194 -2.05338 -1.34511 9.81246 
-211.164 89.3948 0.261227 1.14717 -0.157751 88.8123 -0.571954 -0.741771 1.41571 1.89246 10.68 10.9834 2.6471 3.49725 -0.00905876 2.50472e-015 -5 -3.1927e-015 1.9403 2.84633 -1.57526 -0.151893 7.88524 -18.3411 -2.90621 4.39359 -0.09743 -3.97569e-016 -5 -0 -1.62622 -0.396762 -0.483173 0.839429 12.6197 -1.89714 7.95139e-016 9.62863e-016 -0 84.1041 -1.77824 68.0202 4.74784 -0.0791843 -62.9009 1.81152 -5.76523 -9.75695 7.95139e-016 9.62863e-016 -0 -78.4699 2.34655 -35.4952 1.88064 -2.06281 28.219 -2.16379 -1.05069 9.8123 
-211.234 89.3955 0.298539 1.06294 -0.145994 88.9094 -0.549454 -0.901825 1.39574 1.89764 10.7112 10.8683 2.63515 3.54333 -0.00899778 1.19271e-015 -5 -0 1.95809 2.7156 -1.55621 -0.125872 7.88523 -18.4422 -2.93173 4.43783 -0.0970466 6.95746e-016 -5 -0 -1.82183 -0.36268 -0.54357 1.21195 12.7154 -2.02672 -3.97569e-016 -5.65294e-015 -5.96354e-016 83.7862 -2.19153 67.9731 4.6439 -0.0571039 -62.8746 1.93544 -5.79311 -9.74469 -3.97569e-016 -5.65294e-015 -5.96354e-016 -77.1771 2.13058 -35.6316 2.00379 -2.45894 27.8136 -2.506 -0.674525 9.80076 
-211.295 89.3937 0.368464 0.969457 -0.162437 88.9484 -0.464073 -1.0682 1.45213 1.87654 10.7578 10.8016 2.68417 3.57547 -0.00895967 5.16876e-016 -5 -3.1927e-015 2.01458 2.62114 -1.4988 -0.0903216 7.78205 -18.482 -3.11642 4.53005 -0.0966753 1.99145e-017 -5 -3.1927e-015 -2.06171 -0.357746 -0.532493 1.64458 12.6104 -2.25848 -1.63797e-032 2.36057e-015 3.97569e-016 82.8999 -2.94297 68.4102 4.78493 -0.315837 -62.29 2.54667 -5.09609 -9.7066 -1.63797e-032 2.36057e-015 3.97569e-016 -75.5818 1.53998 -36.284 1.67376 -2.38665 27.293 -2.24978 -1.39309 9.79995 
